<svg xmlns="http://www.w3.org/2000/svg" width="1.2mm" height="0.5mm" viewBox="6.858 1.648 1.2 0.5">
  <g style="fill:none;stroke:#585d84;stroke-width:.04;stroke-opacity:1;stroke-linecap:round;stroke-linejoin:round">
    <path d="M7.158 1.748h.6v.3h-.6Z"/>
  </g>
  <g style="fill:#4d7fc4;stroke:none">
    <path d="m6.908 1.798.008-.038.022-.032.032-.022.038-.008h.26l.039.008.032.022.022.032.007.038v.2l-.007.039-.022.032-.032.022-.039.007h-.26l-.038-.007-.032-.022-.022-.032-.008-.039Z"/>
    <path d="m7.548 1.798.008-.038.022-.032.032-.022.038-.008h.26l.039.008.032.022.022.032.007.038v.2l-.007.039-.022.032-.032.022-.039.007h-.26l-.038-.007-.032-.022-.022-.032-.008-.039Z"/>
  </g>
</svg>
