<svg xmlns="http://www.w3.org/2000/svg" width="2.55mm" height="1.05mm" viewBox="6.183 1.753 2.55 1.05">
  <g style="fill:none;stroke:#585d84;stroke-width:.06;stroke-opacity:1;stroke-linecap:round;stroke-linejoin:round">
    <path d="M6.658 1.878h1.6v.8h-1.6Z"/>
  </g>
  <g style="fill:#4d7fc4;stroke:none">
    <path d="m6.233 2.028.017-.086.05-.073.072-.049.086-.017h.45l.086.017.073.05.05.072.016.086v.5l-.017.086-.049.073-.073.05-.086.016h-.45l-.086-.017-.073-.049-.049-.073-.017-.086Z"/>
    <path d="m7.783 2.028.017-.086.05-.073.072-.049.086-.017h.45l.086.017.073.05.05.072.016.086v.5l-.017.086-.049.073-.073.05-.086.016h-.45l-.086-.017-.073-.049-.049-.073-.017-.086Z"/>
  </g>
</svg>
