<svg
   version="1.1"
   width="4mm"
   height="2mm"
   viewBox="-2 -1 4 2"
   xmlns="http://www.w3.org/2000/svg"
   xmlns:svg="http://www.w3.org/2000/svg">
  <g style="fill:#000000;fill-opacity:1;stroke:#000000;stroke-linecap:round;stroke-linejoin:round;stroke-opacity:1">
    <path
       class="hoverable"
       style="fill:#4d7fc4;fill-opacity:1;fill-rule:evenodd;stroke:none"
       d="M 1.35,0.125 1.34,0.173 1.313,0.213 1.273,0.24 1.225,0.25 H 0.975 L 0.927,0.24 0.887,0.213 0.86,0.173 0.85,0.125 v -0.25 l 0.01,-0.048 0.027,-0.04 0.04,-0.027 0.048,-0.01 h 0.25 l 0.048,0.01 0.04,0.027 0.027,0.04 0.01,0.048 z" />
    <path
       class="hoverable"
       style="fill:#4d7fc4;fill-opacity:1;fill-rule:evenodd;stroke:none"
       d="m -0.85,0.125 -0.01,0.048 -0.027,0.04 -0.04,0.027 -0.048,0.01 h -0.25 L -1.273,0.24 -1.313,0.213 -1.34,0.173 -1.35,0.125 v -0.25 l 0.01,-0.048 0.027,-0.04 0.04,-0.027 0.048,-0.01 h 0.25 l 0.048,0.01 0.04,0.027 0.027,0.04 0.01,0.048 z" />
  </g>
  <g style="fill:none;stroke:#AFAFAF;stroke-width:0.1;stroke-linecap:round;stroke-linejoin:round;stroke-opacity:1">
    <path d="M -0.9,-0.7 V 0.7" />
    <path d="M -0.9,0.7 H 0.9" />
    <path d="m -0.2,-0.35 v 0.7" />
    <path d="M -0.2,0 H -0.45" />
    <path d="M -0.2,0.35 0.3,0" />
    <path d="m 0.3,-0.35 v 0.7" />
    <path d="M 0.3,0 -0.2,-0.35" />
    <path d="M 0.3,0 H 0.5" />
    <path d="M 0.9,-0.7 H -0.9" />
    <path d="M 0.9,0.7 V -0.7" />
  </g>
</svg>
