<svg
   width="6.8mm"
   height="3.35417mm"
   viewBox="17.368 1.77062 6.8 3.35417"
   xmlns="http://www.w3.org/2000/svg"
   xmlns:svg="http://www.w3.org/2000/svg">
  <g stroke="none" style="fill:#4d7fc4;fill-opacity:1;stroke:#000;stroke:none">
    <path
      class="hoverable"
      d="m 22.818,3.993 0.015,-0.078 0.045,-0.067 0.066,-0.044 0.079,-0.016 h 0.94 l 0.078,0.016 0.067,0.044 0.044,0.067 0.016,0.078 v 0.41 l -0.016,0.079 -0.044,0.066 -0.067,0.045 -0.078,0.015 h -0.94 L 22.944,4.593 22.878,4.548 22.833,4.482 22.818,4.403 Z"/>
    <path
      class="hoverable"
      d="m 22.818,2.493 0.015,-0.078 0.045,-0.067 0.066,-0.044 0.079,-0.016 h 0.94 l 0.078,0.016 0.067,0.044 0.044,0.067 0.016,0.078 v 0.41 l -0.016,0.079 -0.044,0.066 -0.067,0.045 -0.078,0.015 h -0.94 L 22.944,3.093 22.878,3.048 22.833,2.982 22.818,2.903 Z"/>
    <path
      class="hoverable"
      d="m 17.368,2.493 0.015,-0.078 0.045,-0.067 0.066,-0.044 0.079,-0.016 h 0.94 l 0.078,0.016 0.067,0.044 0.044,0.067 0.016,0.078 v 0.41 l -0.016,0.079 -0.044,0.066 -0.067,0.045 -0.078,0.015 h -0.94 L 17.494,3.093 17.428,3.048 17.383,2.982 17.368,2.903 Z"/>
    <path
      class="hoverable"
      d="m 17.368,3.993 0.015,-0.078 0.045,-0.067 0.066,-0.044 0.079,-0.016 h 0.94 l 0.078,0.016 0.067,0.044 0.044,0.067 0.016,0.078 v 0.41 l -0.016,0.079 -0.044,0.066 -0.067,0.045 -0.078,0.015 h -0.94 L 17.494,4.593 17.428,4.548 17.383,4.482 17.368,4.403 Z"/>
  </g>
  <g style="fill:none;stroke:#d0d2cd;stroke-width:.12;stroke-opacity:1;stroke-linecap:round;stroke-linejoin:round">
    <path
       d="M19.068 3.448v-.7M19.068 3.448v.7M20.768 1.948h-.9M20.768 1.948h.9M20.768 4.948h-.9M20.768 4.948h.9M22.468 3.448v-.7M22.468 3.448v.7M19.068 2.748a.3.3 0 0 0-.044-.156M19.711 1.904a.5.5 0 0 0-.687.688M19.024 4.305a.3.3 0 0 0 .044-.156M19.024 4.305a.5.5 0 0 0 .687.687"/>
    <path
       d="M19.868 4.948a.3.3 0 0 0-.157.044M19.711 1.904a.3.3 0 0 0 .157.044M21.825 4.992a.3.3 0 0 0-.157-.044M21.668 1.948a.3.3 0 0 0 .157-.044M22.512 2.592a.5.5 0 0 0-.687-.688M22.512 2.592a.3.3 0 0 0-.044.156M21.825 4.992a.5.5 0 0 0 .687-.687M22.468 4.149a.3.3 0 0 0 .044.156"/>
  </g>
</svg>
