<svg xmlns="http://www.w3.org/2000/svg" width="4.201mm" height="1.901mm" viewBox="5.358 1.748 4.201 1.901">
  <g style="fill:none;stroke:#585d84;stroke-width:.12;stroke-opacity:1;stroke-linecap:round;stroke-linejoin:round">
    <path d="M5.858 1.898h3.2v1.6h-3.2Z"/>
  </g>
  <g style="fill:#c83434;stroke:none">
    <path class="hoverable" d="m5.408 2.048.02-.095.054-.082.08-.054.096-.019h.65l.096.02.081.053.054.082.02.095v1.3l-.02.096-.054.081-.081.054-.096.02h-.65l-.095-.02-.081-.054-.055-.081-.019-.096Z"/>
    <path class="hoverable" d="m8.358 2.048.02-.095.054-.082.08-.054.096-.019h.65l.096.02.081.053.054.082.02.095v1.3l-.02.096-.054.081-.081.054-.096.02h-.65l-.095-.02-.081-.054-.055-.081-.019-.096Z"/>
  </g>
</svg>
