<svg
   version="1.1"
   width="20mm"
   height="20mm"
   viewBox="-10 -10 20 20"
   xmlns="http://www.w3.org/2000/svg"
   xmlns:svg="http://www.w3.org/2000/svg">
  <g style="fill:none; stroke:#4D7FC4; stroke-width:2.500; stroke-opacity:1; stroke-linecap:round; stroke-linejoin:round;">
    <path class="hoverable" d="M-3.810 -2.540 L-2.497 -3.998 " />
    <path class="hoverable" d="M2.500 -4.500 L2.540 -5.080 " />
  </g>
  <g style="fill:#AFAFAF; fill-opacity:0.400; stroke:none;">
    <circle class="hoverable" cx="-5.080" cy="0.000" r="0.875" />
    <circle class="hoverable" cx="0.000" cy="0.000" r="2.000" />
    <circle class="hoverable" cx="5.080" cy="0.000" r="0.875" />
  </g>
  <g style="fill:none; stroke:#AFAFAF; stroke-width:0.100; stroke-opacity:1; stroke-linecap:round; stroke-linejoin:round;">
    <path d="M-7.750 -6.400 L-7.000 -6.400 " />
    <path d="M-7.750 6.400 L-7.750 -6.400 " />
    <path d="M-7.000 -7.000 L7.000 -7.000 " />
    <path d="M-7.000 -6.400 L-7.000 -7.000 " />
    <path d="M-7.000 6.400 L-7.750 6.400 " />
    <path d="M-7.000 7.000 L-7.000 6.400 " />
    <path d="M7.000 -7.000 L7.000 -6.400 " />
    <path d="M7.000 -6.400 L7.750 -6.400 " />
    <path d="M7.000 6.400 L7.000 7.000 " />
    <path d="M7.000 7.000 L-7.000 7.000 " />
    <path d="M7.750 -6.400 L7.750 6.400 " />
    <path d="M7.750 6.400 L7.000 6.400 " />
  </g>
</svg>
