<svg width="100%" height="100%" viewBox="-1 -1 87.15 106.2" xmlns="http://www.w3.org/2000/svg"><g id="svgGroup" stroke-linecap="round" fill-rule="evenodd" font-size="9pt" stroke="currentColor" stroke-width="0.5mm" fill="none" style="stroke:currentColor;stroke-width:0.5mm;fill:none"><path d="M 11 14 17 14 M 14 17 14 11" id="origin" stroke="red" stroke-width="0.3mm" style="stroke:red;stroke-width:0.3mm" vector-effect="non-scaling-stroke"></path><path d="M 64.15 21 L 64.15 7 L 78.15 7 L 78.15 21 L 64.15 21 Z M 64.15 49.575 L 64.15 35.575 L 78.15 35.575 L 78.15 49.575 L 64.15 49.575 Z M 64.15 87.675 L 64.15 73.675 L 78.15 73.675 L 78.15 87.675 L 64.15 87.675 Z M 7 21 L 7 7 L 21 7 L 21 21 L 7 21 Z M 26.05 21 L 26.05 7 L 40.05 7 L 40.05 21 L 26.05 21 Z M 45.1 21 L 45.1 7 L 59.1 7 L 59.1 21 L 45.1 21 Z M 7 40.05 L 7 26.05 L 21 26.05 L 21 40.05 L 7 40.05 Z M 26.05 40.05 L 26.05 26.05 L 40.05 26.05 L 40.05 40.05 L 26.05 40.05 Z M 45.1 40.05 L 45.1 26.05 L 59.1 26.05 L 59.1 40.05 L 45.1 40.05 Z M 7 59.1 L 7 45.1 L 21 45.1 L 21 59.1 L 7 59.1 Z M 26.05 59.1 L 26.05 45.1 L 40.05 45.1 L 40.05 59.1 L 26.05 59.1 Z M 45.1 59.1 L 45.1 45.1 L 59.1 45.1 L 59.1 59.1 L 45.1 59.1 Z M 7 78.15 L 7 64.15 L 21 64.15 L 21 78.15 L 7 78.15 Z M 26.05 78.15 L 26.05 64.15 L 40.05 64.15 L 40.05 78.15 L 26.05 78.15 Z M 45.1 78.15 L 45.1 64.15 L 59.1 64.15 L 59.1 78.15 L 45.1 78.15 Z M 16.525 97.2 L 16.525 83.2 L 30.525 83.2 L 30.525 97.2 L 16.525 97.2 Z M 45.1 97.2 L 45.1 83.2 L 59.1 83.2 L 59.1 97.2 L 45.1 97.2 Z M 62.15 27.137 L 77.15 27.137 L 77.15 34.137 L 62.15 34.137 L 62.15 27.137 Z M 62.15 51.013 L 77.15 51.013 L 77.15 58.013 L 62.15 58.013 L 62.15 51.013 Z M 62.15 65.237 L 77.15 65.237 L 77.15 72.237 L 62.15 72.237 L 62.15 65.237 Z M 62.15 89.113 L 77.15 89.113 L 77.15 96.113 L 62.15 96.113 L 62.15 89.113 Z M 8.087 99.2 L 8.087 84.2 L 15.087 84.2 L 15.087 99.2 L 8.087 99.2 Z M 31.963 99.2 L 31.963 84.2 L 38.963 84.2 L 38.963 99.2 L 31.963 99.2 Z M 25.025 23.525 C 25.025 23.923 24.867 24.304 24.586 24.586 C 24.304 24.867 23.923 25.025 23.525 25.025 C 23.127 25.025 22.746 24.867 22.464 24.586 C 22.183 24.304 22.025 23.923 22.025 23.525 C 22.025 23.127 22.183 22.746 22.464 22.464 C 22.746 22.183 23.127 22.025 23.525 22.025 C 23.923 22.025 24.304 22.183 24.586 22.464 C 24.867 22.746 25.025 23.127 25.025 23.525 Z M 63.125 23.525 C 63.125 23.923 62.967 24.304 62.686 24.586 C 62.404 24.867 62.023 25.025 61.625 25.025 C 61.227 25.025 60.846 24.867 60.564 24.586 C 60.283 24.304 60.125 23.923 60.125 23.525 C 60.125 23.127 60.283 22.746 60.564 22.464 C 60.846 22.183 61.227 22.025 61.625 22.025 C 62.023 22.025 62.404 22.183 62.686 22.464 C 62.967 22.746 63.125 23.127 63.125 23.525 Z M 25.025 80.675 C 25.025 81.073 24.867 81.454 24.586 81.736 C 24.304 82.017 23.923 82.175 23.525 82.175 C 23.127 82.175 22.746 82.017 22.464 81.736 C 22.183 81.454 22.025 81.073 22.025 80.675 C 22.025 80.277 22.183 79.896 22.464 79.614 C 22.746 79.333 23.127 79.175 23.525 79.175 C 23.923 79.175 24.304 79.333 24.586 79.614 C 24.867 79.896 25.025 80.277 25.025 80.675 Z M 63.125 80.675 C 63.125 81.073 62.967 81.454 62.686 81.736 C 62.404 82.017 62.023 82.175 61.625 82.175 C 61.227 82.175 60.846 82.017 60.564 81.736 C 60.283 81.454 60.125 81.073 60.125 80.675 C 60.125 80.277 60.283 79.896 60.564 79.614 C 60.846 79.333 61.227 79.175 61.625 79.175 C 62.023 79.175 62.404 79.333 62.686 79.614 C 62.967 79.896 63.125 80.277 63.125 80.675 Z M 4.75 100.7 C 4.75 101.032 4.618 101.349 4.384 101.584 C 4.149 101.818 3.832 101.95 3.5 101.95 C 3.168 101.95 2.851 101.818 2.616 101.584 C 2.382 101.349 2.25 101.032 2.25 100.7 C 2.25 100.368 2.382 100.051 2.616 99.816 C 2.851 99.582 3.168 99.45 3.5 99.45 C 3.832 99.45 4.149 99.582 4.384 99.816 C 4.618 100.051 4.75 100.368 4.75 100.7 Z M 82.9 100.7 C 82.9 101.032 82.768 101.349 82.534 101.584 C 82.299 101.818 81.982 101.95 81.65 101.95 C 81.318 101.95 81.001 101.818 80.766 101.584 C 80.532 101.349 80.4 101.032 80.4 100.7 C 80.4 100.368 80.532 100.051 80.766 99.816 C 81.001 99.582 81.318 99.45 81.65 99.45 C 81.982 99.45 82.299 99.582 82.534 99.816 C 82.768 100.051 82.9 100.368 82.9 100.7 Z M 4.75 3.5 C 4.75 3.832 4.618 4.149 4.384 4.384 C 4.149 4.618 3.832 4.75 3.5 4.75 C 3.168 4.75 2.851 4.618 2.616 4.384 C 2.382 4.149 2.25 3.832 2.25 3.5 C 2.25 3.168 2.382 2.851 2.616 2.616 C 2.851 2.382 3.168 2.25 3.5 2.25 C 3.832 2.25 4.149 2.382 4.384 2.616 C 4.618 2.851 4.75 3.168 4.75 3.5 Z M 82.9 3.5 C 82.9 3.832 82.768 4.149 82.534 4.384 C 82.299 4.618 81.982 4.75 81.65 4.75 C 81.318 4.75 81.001 4.618 80.766 4.384 C 80.532 4.149 80.4 3.832 80.4 3.5 C 80.4 3.168 80.532 2.851 80.766 2.616 C 81.001 2.382 81.318 2.25 81.65 2.25 C 81.982 2.25 82.299 2.382 82.534 2.616 C 82.768 2.851 82.9 3.168 82.9 3.5 Z" vector-effect="non-scaling-stroke"></path><path d="M 0 102.2 L 0 2 A 2 2 0 0 1 2 0 L 83.15 0 A 2 2 0 0 1 85.15 2 L 85.15 102.2 A 2 2 0 0 1 83.15 104.2 L 2 104.2 A 2 2 0 0 1 0 102.2 Z" id="outline" stroke="#0066cc" stroke-width="0.5mm" style="stroke:#0066cc;stroke-width:0.5mm" vector-effect="non-scaling-stroke"></path></g></svg>
